<svg width="650" height="650" viewBox="0 0 650 650" fill="none" xmlns="http://www.w3.org/2000/svg">
<path fill-rule="evenodd" clip-rule="evenodd" d="M339.696 75C358.475 75 376.656 81.6063 391.054 93.662L513.531 196.212C523.079 204.206 523.079 218.887 513.531 226.881L397.408 324.111C379.254 339.311 368.766 361.772 368.766 385.449V555C368.766 566.046 359.811 575 348.766 575H249.846C238.8 575 229.846 566.046 229.846 555V327.484L350.488 226.915C360.056 218.939 360.084 204.252 350.547 196.239L276.16 133.747C263.065 122.745 246.825 116.259 229.846 115.165V95C229.846 83.9543 238.8 75 249.846 75H339.696Z" fill="#C2D9D8"/>
<path fill-rule="evenodd" clip-rule="evenodd" d="M289.696 75C308.475 75 326.656 81.6063 341.054 93.662L463.531 196.212C473.079 204.206 473.079 218.887 463.531 226.881L347.408 324.111C329.254 339.311 318.766 361.772 318.766 385.449V555C318.766 566.046 309.811 575 298.766 575H199.846C188.8 575 179.846 566.046 179.846 555V352.113C186.638 356.012 195.627 356.009 202.652 350.152L229.846 327.484L350.488 226.915C360.056 218.939 360.084 204.252 350.547 196.239L276.16 133.747C263.065 122.745 246.825 116.259 229.846 115.165C228.138 115.055 226.422 115 224.701 115H189.846C186.203 115 182.787 115.974 179.846 117.676V95C179.846 83.9543 188.8 75 199.846 75H289.696Z" fill="#81B2B0"/>
<path fill-rule="evenodd" clip-rule="evenodd" d="M239.696 75C258.475 75 276.656 81.6063 291.054 93.662L413.531 196.212C423.079 204.206 423.079 218.887 413.531 226.881L297.408 324.111C279.254 339.311 268.766 361.772 268.766 385.449V555C268.766 566.046 259.811 575 248.766 575H149.846C138.8 575 129.846 566.046 129.846 555V95C129.846 83.9543 138.8 75 149.846 75H239.696ZM202.652 350.152L229.846 327.484L350.488 226.915C360.056 218.939 360.084 204.252 350.547 196.239L276.16 133.747C263.065 122.745 246.825 116.259 229.846 115.165C228.138 115.055 226.422 115 224.701 115H189.846C186.203 115 182.787 115.974 179.846 117.676C173.868 121.134 169.846 127.597 169.846 135L169.846 334.79C169.846 342.603 174.044 348.782 179.846 352.113C186.638 356.012 195.627 356.009 202.652 350.152Z" fill="#2F6D6A"/>
</svg>
